<svg xmlns="http://www.w3.org/2000/svg" viewBox="0 0 16 16" id="Setting">
  <g color="#000" font-family="sans-serif" font-weight="400" fill="#000000" class="color000000 svgShape">
    <path fill="#4e4187" d="M7.98 1037.33c-.761 0-1.388.625-1.388 1.386v.848a5.572 5.572 0 0 0-.524.217l-.597-.598a1.396 1.396 0 0 0-1.964 0l-.688.688a1.398 1.398 0 0 0 0 1.965l.597.595c-.08.171-.151.346-.214.524h-.848c-.761 0-1.389.627-1.389 1.388v.974c0 .761.628 1.388 1.389 1.388h.844c.064.178.137.352.218.522l-.597.6a1.395 1.395 0 0 0 0 1.962l.688.69a1.396 1.396 0 0 0 1.964 0l.595-.598c.172.08.347.15.526.214v.848c0 .76.627 1.39 1.388 1.39h.974c.761 0 1.389-.63 1.389-1.39v-.843c.178-.064.35-.14.522-.221l.598.6a1.398 1.398 0 0 0 1.966 0l.686-.69a1.395 1.395 0 0 0 0-1.963l-.595-.597c.08-.171.151-.345.214-.524h.847c.76 0 1.388-.627 1.388-1.388v-.974c0-.76-.627-1.388-1.388-1.388h-.847a5.621 5.621 0 0 0-.216-.522l.597-.597a1.398 1.398 0 0 0 0-1.965l-.686-.688a1.398 1.398 0 0 0-1.966 0l-.597.597a5.543 5.543 0 0 0-.523-.217v-.847c0-.761-.628-1.387-1.389-1.387H7.98zm0 .937h.974c.258 0 .45.19.45.449v1.159a.469.469 0 0 0 .343.45c.35.098.688.238 1.006.414a.469.469 0 0 0 .558-.079l.815-.815a.44.44 0 0 1 .638 0l.688.689a.44.44 0 0 1 0 .637l-.82.819a.469.469 0 0 0-.075.562c.178.316.319.652.42 1.002a.469.469 0 0 0 .452.338h1.152a.44.44 0 0 1 .45.45v.975a.44.44 0 0 1-.45.45h-1.158a.469.469 0 0 0-.452.343c-.098.35-.236.687-.412 1.005a.469.469 0 0 0 .078.559l.815.815a.44.44 0 0 1 0 .637l-.688.689a.44.44 0 0 1-.638 0l-.818-.819a.469.469 0 0 0-.563-.077 4.688 4.688 0 0 1-1.001.42.469.469 0 0 0-.34.45v1.154a.44.44 0 0 1-.45.45H7.98a.44.44 0 0 1-.45-.45v-1.158a.469.469 0 0 0-.343-.45 4.679 4.679 0 0 1-1.006-.412.469.469 0 0 0-.558.077l-.815.815a.44.44 0 0 1-.638 0l-.688-.69a.437.437 0 0 1 0-.636l.817-.817a.469.469 0 0 0 .078-.56 4.687 4.687 0 0 1-.417-1.004.469.469 0 0 0-.453-.34H2.354a.44.44 0 0 1-.45-.451v-.974a.44.44 0 0 1 .45-.453H3.51a.469.469 0 0 0 .453-.34c.098-.35.235-.688.412-1.005a.469.469 0 0 0-.08-.56l-.814-.814a.44.44 0 0 1 0-.637l.688-.689a.44.44 0 0 1 .638 0l.818.819a.469.469 0 0 0 .56.077 4.689 4.689 0 0 1 1.003-.42.469.469 0 0 0 .34-.45v-1.156c0-.258.193-.448.45-.448zm.487 3.75a2.82 2.82 0 0 0-2.813 2.813 2.82 2.82 0 0 0 2.813 2.813 2.822 2.822 0 0 0 2.815-2.813 2.822 2.822 0 0 0-2.815-2.813zm0 .938c1.041 0 1.876.834 1.876 1.875a1.868 1.868 0 0 1-1.876 1.875 1.868 1.868 0 0 1-1.875-1.875c0-1.041.834-1.875 1.875-1.875z" overflow="visible" style="line-height:normal;text-indent:0;text-align:start;text-decoration-line:none;text-decoration-style:solid;text-decoration-color:#000;text-transform:none;block-progression:tb;isolation:auto;mix-blend-mode:normal" transform="translate(-1.03 -1106.225)scale(1.06642)" class="color249fe6 svgShape"></path>
    <path fill="#e3c0d3" d="M7.98 1038.267h.974c.258 0 .45.19.45.449v1.159c.001.21.141.394.343.45.35.098.688.238 1.006.414.183.101.41.07.558-.079l.815-.815a.44.44 0 0 1 .638 0l.688.689a.44.44 0 0 1 0 .637l-.82.819a.469.469 0 0 0-.075.562c.178.316.319.652.42 1.002.057.2.242.34.452.338h1.152a.44.44 0 0 1 .45.45v.975a.44.44 0 0 1-.45.45h-1.158c-.21 0-.395.14-.452.343-.098.35-.236.687-.412 1.005a.469.469 0 0 0 .078.559l.815.815a.44.44 0 0 1 0 .637l-.688.689a.44.44 0 0 1-.638 0l-.818-.819a.469.469 0 0 0-.563-.077 4.688 4.688 0 0 1-1.001.42.469.469 0 0 0-.34.45v1.154a.44.44 0 0 1-.45.45H7.98a.44.44 0 0 1-.45-.45v-1.158c-.001-.21-.141-.394-.343-.45a4.679 4.679 0 0 1-1.006-.412.47.47 0 0 0-.558.077l-.815.815a.44.44 0 0 1-.638 0l-.688-.69a.437.437 0 0 1 0-.636l.817-.817a.469.469 0 0 0 .078-.56 4.687 4.687 0 0 1-.417-1.004.469.469 0 0 0-.453-.34H2.354a.44.44 0 0 1-.45-.451v-.974a.44.44 0 0 1 .45-.453H3.51c.21.001.395-.138.453-.34.098-.35.235-.688.412-1.005a.469.469 0 0 0-.08-.56l-.814-.814a.44.44 0 0 1 0-.637l.688-.689a.44.44 0 0 1 .638 0l.818.819c.149.148.378.18.56.077a4.689 4.689 0 0 1 1.003-.42.469.469 0 0 0 .34-.45v-1.156c0-.258.193-.448.45-.448zm.487 3.75a2.82 2.82 0 0 0-2.813 2.813 2.82 2.82 0 0 0 2.813 2.813 2.822 2.822 0 0 0 2.815-2.813 2.822 2.822 0 0 0-2.815-2.813z" overflow="visible" style="line-height:normal;text-indent:0;text-align:start;text-decoration-line:none;text-decoration-style:solid;text-decoration-color:#000;text-transform:none;block-progression:tb;isolation:auto;mix-blend-mode:normal" transform="translate(-1.03 -1106.225)scale(1.06642)" class="colorc2e4f8 svgShape"></path>
  </g>
</svg>
