<svg xmlns="http://www.w3.org/2000/svg" viewBox="0 0 16 16" id="Right">
  <g fill-rule="evenodd" color="#000" font-family="sans-serif" font-weight="400" fill="#000000" class="color000000 svgShape">
    <path fill="#4e4187" d="M8 1C4.14 1 1 4.14 1 8s3.14 7 7 7 7-3.14 7-7-3.14-7-7-7zm0 1c3.32 0 6 2.68 6 6s-2.68 6-6 6a5.994 5.994 0 0 1-6.002-6C1.998 4.68 4.68 2 8 2zm3.828 3.574a.5.5 0 0 0-.312.108L6.357 9.617l-1.79-2.193a.5.5 0 0 0-.774.633L6.195 11l5.928-4.523a.5.5 0 0 0-.295-.903z" overflow="visible" style="line-height:normal;text-indent:0;text-align:start;text-decoration-line:none;text-decoration-style:solid;text-decoration-color:#000;text-transform:none;block-progression:tb;isolation:auto;mix-blend-mode:normal" transform="translate(0 .002)" class="color249fe6 svgShape"></path>
    <path fill="#e3c0d3" d="M8 2c3.32 0 6 2.68 6 6s-2.68 6-6 6a5.994 5.994 0 0 1-6.002-6C1.998 4.68 4.68 2 8 2Zm3.828 3.574a.5.5 0 0 0-.312.108L6.357 9.617l-1.79-2.193c-.426-.47-1.15.122-.774.633L6.195 11l5.928-4.523a.5.5 0 0 0-.295-.903Z" overflow="visible" style="line-height:normal;text-indent:0;text-align:start;text-decoration-line:none;text-decoration-style:solid;text-decoration-color:#000;text-transform:none;block-progression:tb;isolation:auto;mix-blend-mode:normal" transform="translate(0 .002)" class="colorc2e4f8 svgShape"></path>
  </g>
</svg>
