<svg xmlns="http://www.w3.org/2000/svg" viewBox="0 0 16 16" id="Heart">
  <g color="#000" font-family="sans-serif" font-weight="400" fill="#000000" class="color000000 svgShape">
    <path fill="#4e4187" d="M4.996 2.004C3.98 1.95 2.961 2.29 2.211 3.04.71 4.544.867 7.068 2.473 8.676l.513.513 4.662 4.666a.5.5 0 0 0 .706 0l4.66-4.666.513-.513c1.606-1.608 1.762-4.132.26-5.635-1.501-1.503-4.02-1.343-5.625.264L8 3.467l-.162-.162C7.035 2.5 6.013 2.058 4.996 2.004zm6.049.994V3c.76-.043 1.497.21 2.037.75 1.08 1.08 1.004 2.951-.26 4.217l-.517.517L8 12.793 3.695 8.484l-.515-.517C1.916 6.7 1.84 4.83 2.92 3.75c.54-.54 1.261-.788 2.023-.748.762.04 1.554.375 2.186 1.008l.52.517a.5.5 0 0 0 .706 0l.516-.52c.632-.632 1.414-.967 2.174-1.009z" overflow="visible" style="line-height:normal;text-indent:0;text-align:start;text-decoration-line:none;text-decoration-style:solid;text-decoration-color:#000;text-transform:none;block-progression:tb;isolation:auto;mix-blend-mode:normal" transform="translate(0 .002)" class="color249fe6 svgShape"></path>
    <path fill="#e3c0d3" d="M11.045 2.998V3c.76-.043 1.497.21 2.037.75 1.08 1.08 1.004 2.951-.26 4.217l-.517.517L8 12.793 3.695 8.484l-.515-.517C1.916 6.7 1.84 4.83 2.92 3.75c.54-.54 1.261-.788 2.023-.748.762.04 1.554.375 2.186 1.008l.52.517a.5.5 0 0 0 .706 0l.516-.52c.632-.632 1.414-.967 2.174-1.009Z" overflow="visible" style="line-height:normal;text-indent:0;text-align:start;text-decoration-line:none;text-decoration-style:solid;text-decoration-color:#000;text-transform:none;block-progression:tb;isolation:auto;mix-blend-mode:normal" transform="translate(0 .002)" class="colorc2e4f8 svgShape"></path>
  </g>
</svg>
