<svg xmlns="http://www.w3.org/2000/svg" viewBox="0 0 16 16" id="Bluetooth">
  <g color="#000" font-family="sans-serif" font-weight="400" fill="#000000" class="color000000 svgShape">
    <path fill="#4e4187" d="M12.5 1a2.508 2.508 0 0 0-2.451 2.988L6.377 6.191A2.989 2.989 0 0 0 4 5C2.35 5 1 6.35 1 8c0 1.651 1.35 3 3 3a3.004 3.004 0 0 0 2.486-1.326l3.614 2.17c-.058.21-.1.428-.1.656 0 1.375 1.125 2.5 2.5 2.5s2.5-1.125 2.5-2.5-1.125-2.5-2.5-2.5c-.788 0-1.486.376-1.945.951L6.893 8.752C6.956 8.51 7 8.262 7 8c0-.323-.065-.628-.16-.92l3.605-2.164A2.502 2.502 0 0 0 12.5 6C13.875 6 15 4.875 15 3.5S13.875 1 12.5 1zm0 1c.834 0 1.5.666 1.5 1.5S13.334 5 12.5 5 11 4.334 11 3.5 11.666 2 12.5 2zM4 6c1.11 0 2 .89 2 2 0 1.11-.89 2-2 2-1.11 0-2-.89-2-2 0-1.11.89-2 2-2zm8.5 5c.834 0 1.5.666 1.5 1.5s-.666 1.5-1.5 1.5-1.5-.666-1.5-1.5.666-1.5 1.5-1.5z" overflow="visible" style="line-height:normal;text-indent:0;text-align:start;text-decoration-line:none;text-decoration-style:solid;text-decoration-color:#000;text-transform:none;block-progression:tb;isolation:auto;mix-blend-mode:normal" class="color249fe6 svgShape"></path>
    <path fill="#e3c0d3" d="M12.5 2c.834 0 1.5.666 1.5 1.5S13.334 5 12.5 5 11 4.334 11 3.5 11.666 2 12.5 2ZM4 6c1.11 0 2 .89 2 2 0 1.11-.89 2-2 2-1.11 0-2-.89-2-2 0-1.11.89-2 2-2Zm8.5 5c.834 0 1.5.666 1.5 1.5s-.666 1.5-1.5 1.5-1.5-.666-1.5-1.5.666-1.5 1.5-1.5Z" overflow="visible" style="line-height:normal;text-indent:0;text-align:start;text-decoration-line:none;text-decoration-style:solid;text-decoration-color:#000;text-transform:none;block-progression:tb;isolation:auto;mix-blend-mode:normal" class="colorc2e4f8 svgShape"></path>
  </g>
</svg>
