<svg xmlns="http://www.w3.org/2000/svg" viewBox="0 0 16 16" id="Round">
  <g color="#000" font-family="sans-serif" font-weight="400" fill="#000000" class="color000000 svgShape">
    <path fill="#4e4187" d="M1.998 6A2.006 2.006 0 0 0 0 8c0 1.099.9 2 1.998 2A2.01 2.01 0 0 0 4 8c0-1.099-.903-2-2.002-2zM8 6c-1.099 0-2 .901-2 2s.901 2 2 2 2-.901 2-2-.901-2-2-2zm6 0c-1.099 0-2 .901-2 2s.901 2 2 2 2-.901 2-2-.901-2-2-2zm-12.002.998A.996.996 0 0 1 3 8c0 .558-.444 1-1.002 1A.99.99 0 0 1 1 8c0-.558.44-1.002.998-1.002zm6.002 0c.558 0 1 .444 1 1.002s-.442 1-1 1-1-.442-1-1a.994.994 0 0 1 1-1.002zm6 0c.558 0 1 .444 1 1.002s-.442 1-1 1-1-.442-1-1a.994.994 0 0 1 1-1.002z" overflow="visible" style="line-height:normal;text-indent:0;text-align:start;text-decoration-line:none;text-decoration-style:solid;text-decoration-color:#000;text-transform:none;block-progression:tb;isolation:auto;mix-blend-mode:normal;marker:none" transform="translate(0 .002)" class="color249fe6 svgShape"></path>
    <path fill="#e3c0d3" d="M1.998 6.998A.996.996 0 0 1 3 8c0 .558-.444 1-1.002 1A.99.99 0 0 1 1 8c0-.558.44-1.002.998-1.002Zm6.002 0c.558 0 1 .444 1 1.002s-.442 1-1 1-1-.442-1-1a.994.994 0 0 1 1-1.002Zm6 0c.558 0 1 .444 1 1.002s-.442 1-1 1-1-.442-1-1a.994.994 0 0 1 1-1.002z" overflow="visible" style="line-height:normal;text-indent:0;text-align:start;text-decoration-line:none;text-decoration-style:solid;text-decoration-color:#000;text-transform:none;block-progression:tb;isolation:auto;mix-blend-mode:normal;marker:none" transform="translate(0 .002)" class="colorc2e4f8 svgShape"></path>
  </g>
</svg>
