<svg xmlns="http://www.w3.org/2000/svg" viewBox="0 0 16 16" id="User">
  <g color="#000" font-family="sans-serif" font-weight="400" fill="#000000" class="color000000 svgShape">
    <path fill="#4e4187" d="M8.467 1037.328a3.291 3.291 0 0 0-3.282 3.286 3.29 3.29 0 0 0 3.282 3.285 3.29 3.29 0 0 0 3.282-3.285 3.291 3.291 0 0 0-3.282-3.286zm0 .939c1.3 0 2.344 1.045 2.344 2.347a2.339 2.339 0 0 1-2.344 2.347 2.339 2.339 0 0 1-2.344-2.347 2.339 2.339 0 0 1 2.344-2.347zm-3.013 6.57c-1.441 0-2.62 1.168-2.62 2.605v4.42a.469.47 0 0 0 .468.469h10.332a.469.47 0 0 0 .467-.47V1047.443c0-1.437-1.18-2.604-2.621-2.604H5.454zm0 .94h6.026c.943 0 1.685.738 1.685 1.665V1051.392H3.77v-3.95c0-.927.74-1.665 1.683-1.665z" overflow="visible" style="line-height:normal;text-indent:0;text-align:start;text-decoration-line:none;text-decoration-style:solid;text-decoration-color:#000;text-transform:none;block-progression:tb;isolation:auto;mix-blend-mode:normal" transform="translate(-1.03 -1106.225)scale(1.06642)" class="color249fe6 svgShape"></path>
    <path fill="#e3c0d3" d="M8.467 1038.266c1.3 0 2.344 1.046 2.344 2.348a2.339 2.339 0 0 1-2.344 2.347 2.339 2.339 0 0 1-2.344-2.347 2.339 2.339 0 0 1 2.344-2.347zm-3.013 7.51h6.026c.943 0 1.685.738 1.685 1.666V1051.392H3.77v-3.95c0-.928.74-1.666 1.683-1.666z" overflow="visible" style="line-height:normal;text-indent:0;text-align:start;text-decoration-line:none;text-decoration-style:solid;text-decoration-color:#000;text-transform:none;block-progression:tb;isolation:auto;mix-blend-mode:normal" transform="translate(-1.03 -1106.225)scale(1.06642)" class="colorc2e4f8 svgShape"></path>
  </g>
</svg>
